<mxfile host="app.diagrams.net" agent="Mozilla/5.0 (Windows NT 10.0; Win64; x64) AppleWebKit/537.36 (KHTML, like Gecko) Chrome/128.0.0.0 Safari/537.36 OPR/114.0.0.0" version="26.0.4">
  <diagram name="Page-1" id="2PvMuuVXnrtu_wnbC9QU">
    <mxGraphModel dx="888" dy="553" grid="1" gridSize="10" guides="1" tooltips="1" connect="1" arrows="1" fold="1" page="1" pageScale="1" pageWidth="850" pageHeight="1100" math="0" shadow="0">
      <root>
        <mxCell id="0" />
        <mxCell id="1" parent="0" />
        <mxCell id="K7Be8ACF9KZPtc9YEbSb-3" value="" style="edgeStyle=orthogonalEdgeStyle;rounded=0;orthogonalLoop=1;jettySize=auto;html=1;" edge="1" parent="1" source="K7Be8ACF9KZPtc9YEbSb-1" target="K7Be8ACF9KZPtc9YEbSb-2">
          <mxGeometry relative="1" as="geometry" />
        </mxCell>
        <mxCell id="K7Be8ACF9KZPtc9YEbSb-1" value="&lt;pre&gt;Start&lt;/pre&gt;" style="ellipse;whiteSpace=wrap;html=1;strokeWidth=1;opacity=50;" vertex="1" parent="1">
          <mxGeometry x="360" y="70" width="100" height="70" as="geometry" />
        </mxCell>
        <mxCell id="K7Be8ACF9KZPtc9YEbSb-2" value="&lt;pre&gt;Akses Website&lt;/pre&gt;" style="whiteSpace=wrap;html=1;strokeWidth=1;opacity=50;" vertex="1" parent="1">
          <mxGeometry x="345" y="170" width="130" height="40" as="geometry" />
        </mxCell>
      </root>
    </mxGraphModel>
  </diagram>
</mxfile>
